<?xml version="1.0" encoding="utf-8" standalone="no"?>
<!DOCTYPE svg PUBLIC "-//W3C//DTD SVG 1.1//EN"
  "http://www.w3.org/Graphics/SVG/1.1/DTD/svg11.dtd">
<svg xmlns:xlink="http://www.w3.org/1999/xlink" width="864pt" height="129.6pt" viewBox="0 0 864 129.6" xmlns="http://www.w3.org/2000/svg" version="1.1">
 <metadata>
  <rdf:RDF xmlns:dc="http://purl.org/dc/elements/1.1/" xmlns:cc="http://creativecommons.org/ns#" xmlns:rdf="http://www.w3.org/1999/02/22-rdf-syntax-ns#">
   <cc:Work>
    <dc:type rdf:resource="http://purl.org/dc/dcmitype/StillImage"/>
    <dc:date>2026-09-30T15:16:20.151717</dc:date>
    <dc:format>image/svg+xml</dc:format>
    <dc:creator>
     <cc:Agent>
      <dc:title>Matplotlib v3.11.2, https://matplotlib.org/</dc:title>
     </cc:Agent>
    </dc:creator>
   </cc:Work>
  </rdf:RDF>
 </metadata>
 <defs>
  <style type="text/css">*{stroke-linejoin: round; stroke-linecap: butt}</style>
 </defs>
 <g id="figure_1">
  <g id="patch_1">
   <path d="M 0 129.6 
L 864 129.6 
L 864 0 
L 0 0 
z
" style="fill: #ffffff"/>
  </g>
  <g id="axes_1">
   <g id="patch_2">
    <path d="M 43.524687 94.399442 
L 192.16585 94.399442 
L 192.16585 20.078861 
L 43.524687 20.078861 
z
" style="fill: #ffffff"/>
   </g>
   <g id="matplotlib.axis_1">
    <g id="xtick_1">
     <g id="line2d_1">
      <path d="M 43.524687 94.399442 
L 43.524687 20.078861 
" clip-path="url(#p076a864ead)" style="fill: none; stroke: #52514e; stroke-opacity: 0.15; stroke-width: 0.8; stroke-linecap: square"/>
     </g>
     <g id="line2d_2">
      <defs>
       <path id="mb86fb6464f" d="M 0 0 
L 0 3.5 
" style="stroke: #000000; stroke-width: 0.8"/>
      </defs>
      <g>
       <use xlink:href="#mb86fb6464f" x="43.524687" y="94.399442" style="stroke: #000000; stroke-width: 0.8"/>
      </g>
     </g>
     <g id="text_1">
      <!-- 0 -->
      <g transform="translate(39.707187 110.51663) scale(0.12 -0.12)">
       <defs>
        <path id="DejaVuSans-13" d="M 2034 4250 
Q 1547 4250 1301 3770 
Q 1056 3291 1056 2328 
Q 1056 1369 1301 889 
Q 1547 409 2034 409 
Q 2525 409 2770 889 
Q 3016 1369 3016 2328 
Q 3016 3291 2770 3770 
Q 2525 4250 2034 4250 
z
M 2034 4750 
Q 2819 4750 3233 4129 
Q 3647 3509 3647 2328 
Q 3647 1150 3233 529 
Q 2819 -91 2034 -91 
Q 1250 -91 836 529 
Q 422 1150 422 2328 
Q 422 3509 836 4129 
Q 1250 4750 2034 4750 
z
" transform="scale(0.015625)"/>
       </defs>
       <use xlink:href="#DejaVuSans-13"/>
      </g>
     </g>
    </g>
    <g id="xtick_2">
     <g id="line2d_3">
      <path d="M 80.684978 94.399442 
L 80.684978 20.078861 
" clip-path="url(#p076a864ead)" style="fill: none; stroke: #52514e; stroke-opacity: 0.15; stroke-width: 0.8; stroke-linecap: square"/>
     </g>
     <g id="line2d_4">
      <g>
       <use xlink:href="#mb86fb6464f" x="80.684978" y="94.399442" style="stroke: #000000; stroke-width: 0.8"/>
      </g>
     </g>
     <g id="text_2">
      <!-- 1 -->
      <g transform="translate(76.867478 110.51663) scale(0.12 -0.12)">
       <defs>
        <path id="DejaVuSans-14" d="M 794 531 
L 1825 531 
L 1825 4091 
L 703 3866 
L 703 4441 
L 1819 4666 
L 2450 4666 
L 2450 531 
L 3481 531 
L 3481 0 
L 794 0 
L 794 531 
z
" transform="scale(0.015625)"/>
       </defs>
       <use xlink:href="#DejaVuSans-14"/>
      </g>
     </g>
    </g>
    <g id="xtick_3">
     <g id="line2d_5">
      <path d="M 117.845269 94.399442 
L 117.845269 20.078861 
" clip-path="url(#p076a864ead)" style="fill: none; stroke: #52514e; stroke-opacity: 0.15; stroke-width: 0.8; stroke-linecap: square"/>
     </g>
     <g id="line2d_6">
      <g>
       <use xlink:href="#mb86fb6464f" x="117.845269" y="94.399442" style="stroke: #000000; stroke-width: 0.8"/>
      </g>
     </g>
     <g id="text_3">
      <!-- 2 -->
      <g transform="translate(114.027769 110.51663) scale(0.12 -0.12)">
       <defs>
        <path id="DejaVuSans-15" d="M 1228 531 
L 3431 531 
L 3431 0 
L 469 0 
L 469 531 
Q 828 903 1448 1529 
Q 2069 2156 2228 2338 
Q 2531 2678 2651 2914 
Q 2772 3150 2772 3378 
Q 2772 3750 2511 3984 
Q 2250 4219 1831 4219 
Q 1534 4219 1204 4116 
Q 875 4013 500 3803 
L 500 4441 
Q 881 4594 1212 4672 
Q 1544 4750 1819 4750 
Q 2544 4750 2975 4387 
Q 3406 4025 3406 3419 
Q 3406 3131 3298 2873 
Q 3191 2616 2906 2266 
Q 2828 2175 2409 1742 
Q 1991 1309 1228 531 
z
" transform="scale(0.015625)"/>
       </defs>
       <use xlink:href="#DejaVuSans-15"/>
      </g>
     </g>
    </g>
    <g id="xtick_4">
     <g id="line2d_7">
      <path d="M 155.005559 94.399442 
L 155.005559 20.078861 
" clip-path="url(#p076a864ead)" style="fill: none; stroke: #52514e; stroke-opacity: 0.15; stroke-width: 0.8; stroke-linecap: square"/>
     </g>
     <g id="line2d_8">
      <g>
       <use xlink:href="#mb86fb6464f" x="155.005559" y="94.399442" style="stroke: #000000; stroke-width: 0.8"/>
      </g>
     </g>
     <g id="text_4">
      <!-- 3 -->
      <g transform="translate(151.188059 110.51663) scale(0.12 -0.12)">
       <defs>
        <path id="DejaVuSans-16" d="M 2597 2516 
Q 3050 2419 3304 2112 
Q 3559 1806 3559 1356 
Q 3559 666 3084 287 
Q 2609 -91 1734 -91 
Q 1441 -91 1130 -33 
Q 819 25 488 141 
L 488 750 
Q 750 597 1062 519 
Q 1375 441 1716 441 
Q 2309 441 2620 675 
Q 2931 909 2931 1356 
Q 2931 1769 2642 2001 
Q 2353 2234 1838 2234 
L 1294 2234 
L 1294 2753 
L 1863 2753 
Q 2328 2753 2575 2939 
Q 2822 3125 2822 3475 
Q 2822 3834 2567 4026 
Q 2313 4219 1838 4219 
Q 1578 4219 1281 4162 
Q 984 4106 628 3988 
L 628 4550 
Q 988 4650 1302 4700 
Q 1616 4750 1894 4750 
Q 2613 4750 3031 4423 
Q 3450 4097 3450 3541 
Q 3450 3153 3228 2886 
Q 3006 2619 2597 2516 
z
" transform="scale(0.015625)"/>
       </defs>
       <use xlink:href="#DejaVuSans-16"/>
      </g>
     </g>
    </g>
    <g id="xtick_5">
     <g id="line2d_9">
      <path d="M 192.16585 94.399442 
L 192.16585 20.078861 
" clip-path="url(#p076a864ead)" style="fill: none; stroke: #52514e; stroke-opacity: 0.15; stroke-width: 0.8; stroke-linecap: square"/>
     </g>
     <g id="line2d_10">
      <g>
       <use xlink:href="#mb86fb6464f" x="192.16585" y="94.399442" style="stroke: #000000; stroke-width: 0.8"/>
      </g>
     </g>
     <g id="text_5">
      <!-- 4 -->
      <g transform="translate(188.34835 110.51663) scale(0.12 -0.12)">
       <defs>
        <path id="DejaVuSans-17" d="M 2419 4116 
L 825 1625 
L 2419 1625 
L 2419 4116 
z
M 2253 4666 
L 3047 4666 
L 3047 1625 
L 3713 1625 
L 3713 1100 
L 3047 1100 
L 3047 0 
L 2419 0 
L 2419 1100 
L 313 1100 
L 313 1709 
L 2253 4666 
z
" transform="scale(0.015625)"/>
       </defs>
       <use xlink:href="#DejaVuSans-17"/>
      </g>
     </g>
    </g>
   </g>
   <g id="matplotlib.axis_2">
    <g id="ytick_1">
     <g id="line2d_11">
      <path d="M 43.524687 91.021234 
L 192.16585 91.021234 
" clip-path="url(#p076a864ead)" style="fill: none; stroke: #52514e; stroke-opacity: 0.15; stroke-width: 0.8; stroke-linecap: square"/>
     </g>
     <g id="line2d_12">
      <defs>
       <path id="m36dbb3258b" d="M 0 0 
L -3.5 0 
" style="stroke: #000000; stroke-width: 0.8"/>
      </defs>
      <g>
       <use xlink:href="#m36dbb3258b" x="43.524687" y="91.021234" style="stroke: #000000; stroke-width: 0.8"/>
      </g>
     </g>
     <g id="text_6">
      <!-- 0.0 -->
      <g transform="translate(17.440938 95.579828) scale(0.12 -0.12)">
       <defs>
        <path id="DejaVuSans-11" d="M 684 794 
L 1344 794 
L 1344 0 
L 684 0 
L 684 794 
z
" transform="scale(0.015625)"/>
       </defs>
       <use xlink:href="#DejaVuSans-13"/>
       <use xlink:href="#DejaVuSans-11" transform="translate(63.625 0)"/>
       <use xlink:href="#DejaVuSans-13" transform="translate(95.40625 0)"/>
      </g>
     </g>
    </g>
    <g id="ytick_2">
     <g id="line2d_13">
      <path d="M 43.524687 57.239152 
L 192.16585 57.239152 
" clip-path="url(#p076a864ead)" style="fill: none; stroke: #52514e; stroke-opacity: 0.15; stroke-width: 0.8; stroke-linecap: square"/>
     </g>
     <g id="line2d_14">
      <g>
       <use xlink:href="#m36dbb3258b" x="43.524687" y="57.239152" style="stroke: #000000; stroke-width: 0.8"/>
      </g>
     </g>
     <g id="text_7">
      <!-- 0.5 -->
      <g transform="translate(17.440938 61.797745) scale(0.12 -0.12)">
       <defs>
        <path id="DejaVuSans-18" d="M 691 4666 
L 3169 4666 
L 3169 4134 
L 1269 4134 
L 1269 2991 
Q 1406 3038 1543 3061 
Q 1681 3084 1819 3084 
Q 2600 3084 3056 2656 
Q 3513 2228 3513 1497 
Q 3513 744 3044 326 
Q 2575 -91 1722 -91 
Q 1428 -91 1123 -41 
Q 819 9 494 109 
L 494 744 
Q 775 591 1075 516 
Q 1375 441 1709 441 
Q 2250 441 2565 725 
Q 2881 1009 2881 1497 
Q 2881 1984 2565 2268 
Q 2250 2553 1709 2553 
Q 1456 2553 1204 2497 
Q 953 2441 691 2322 
L 691 4666 
z
" transform="scale(0.015625)"/>
       </defs>
       <use xlink:href="#DejaVuSans-13"/>
       <use xlink:href="#DejaVuSans-11" transform="translate(63.625 0)"/>
       <use xlink:href="#DejaVuSans-18" transform="translate(95.40625 0)"/>
      </g>
     </g>
    </g>
    <g id="ytick_3">
     <g id="line2d_15">
      <path d="M 43.524687 23.457069 
L 192.16585 23.457069 
" clip-path="url(#p076a864ead)" style="fill: none; stroke: #52514e; stroke-opacity: 0.15; stroke-width: 0.8; stroke-linecap: square"/>
     </g>
     <g id="line2d_16">
      <g>
       <use xlink:href="#m36dbb3258b" x="43.524687" y="23.457069" style="stroke: #000000; stroke-width: 0.8"/>
      </g>
     </g>
     <g id="text_8">
      <!-- 1.0 -->
      <g transform="translate(17.440938 28.015663) scale(0.12 -0.12)">
       <use xlink:href="#DejaVuSans-14"/>
       <use xlink:href="#DejaVuSans-11" transform="translate(63.625 0)"/>
       <use xlink:href="#DejaVuSans-13" transform="translate(95.40625 0)"/>
      </g>
     </g>
    </g>
    <g id="text_9">
     <!-- Wavetable position -->
     <g transform="translate(10.558125 114.577589) rotate(-90) scale(0.12 -0.12)">
      <defs>
       <path id="DejaVuSans-3a" d="M 213 4666 
L 850 4666 
L 1831 722 
L 2809 4666 
L 3519 4666 
L 4500 722 
L 5478 4666 
L 6119 4666 
L 4947 0 
L 4153 0 
L 3169 4050 
L 2175 0 
L 1381 0 
L 213 4666 
z
" transform="scale(0.015625)"/>
       <path id="DejaVuSans-44" d="M 2194 1759 
Q 1497 1759 1228 1600 
Q 959 1441 959 1056 
Q 959 750 1161 570 
Q 1363 391 1709 391 
Q 2188 391 2477 730 
Q 2766 1069 2766 1631 
L 2766 1759 
L 2194 1759 
z
M 3341 1997 
L 3341 0 
L 2766 0 
L 2766 531 
Q 2569 213 2275 61 
Q 1981 -91 1556 -91 
Q 1019 -91 701 211 
Q 384 513 384 1019 
Q 384 1609 779 1909 
Q 1175 2209 1959 2209 
L 2766 2209 
L 2766 2266 
Q 2766 2663 2505 2880 
Q 2244 3097 1772 3097 
Q 1472 3097 1187 3025 
Q 903 2953 641 2809 
L 641 3341 
Q 956 3463 1253 3523 
Q 1550 3584 1831 3584 
Q 2591 3584 2966 3190 
Q 3341 2797 3341 1997 
z
" transform="scale(0.015625)"/>
       <path id="DejaVuSans-59" d="M 191 3500 
L 800 3500 
L 1894 563 
L 2988 3500 
L 3597 3500 
L 2284 0 
L 1503 0 
L 191 3500 
z
" transform="scale(0.015625)"/>
       <path id="DejaVuSans-48" d="M 3597 1894 
L 3597 1613 
L 953 1613 
Q 991 1019 1311 708 
Q 1631 397 2203 397 
Q 2534 397 2845 478 
Q 3156 559 3463 722 
L 3463 178 
Q 3153 47 2828 -22 
Q 2503 -91 2169 -91 
Q 1331 -91 842 396 
Q 353 884 353 1716 
Q 353 2575 817 3079 
Q 1281 3584 2069 3584 
Q 2775 3584 3186 3129 
Q 3597 2675 3597 1894 
z
M 3022 2063 
Q 3016 2534 2758 2815 
Q 2500 3097 2075 3097 
Q 1594 3097 1305 2825 
Q 1016 2553 972 2059 
L 3022 2063 
z
" transform="scale(0.015625)"/>
       <path id="DejaVuSans-57" d="M 1172 4494 
L 1172 3500 
L 2356 3500 
L 2356 3053 
L 1172 3053 
L 1172 1153 
Q 1172 725 1289 603 
Q 1406 481 1766 481 
L 2356 481 
L 2356 0 
L 1766 0 
Q 1100 0 847 248 
Q 594 497 594 1153 
L 594 3053 
L 172 3053 
L 172 3500 
L 594 3500 
L 594 4494 
L 1172 4494 
z
" transform="scale(0.015625)"/>
       <path id="DejaVuSans-45" d="M 3116 1747 
Q 3116 2381 2855 2742 
Q 2594 3103 2138 3103 
Q 1681 3103 1420 2742 
Q 1159 2381 1159 1747 
Q 1159 1113 1420 752 
Q 1681 391 2138 391 
Q 2594 391 2855 752 
Q 3116 1113 3116 1747 
z
M 1159 2969 
Q 1341 3281 1617 3432 
Q 1894 3584 2278 3584 
Q 2916 3584 3314 3078 
Q 3713 2572 3713 1747 
Q 3713 922 3314 415 
Q 2916 -91 2278 -91 
Q 1894 -91 1617 61 
Q 1341 213 1159 525 
L 1159 0 
L 581 0 
L 581 4863 
L 1159 4863 
L 1159 2969 
z
" transform="scale(0.015625)"/>
       <path id="DejaVuSans-4f" d="M 603 4863 
L 1178 4863 
L 1178 0 
L 603 0 
L 603 4863 
z
" transform="scale(0.015625)"/>
       <path id="DejaVuSans-3" transform="scale(0.015625)"/>
       <path id="DejaVuSans-53" d="M 1159 525 
L 1159 -1331 
L 581 -1331 
L 581 3500 
L 1159 3500 
L 1159 2969 
Q 1341 3281 1617 3432 
Q 1894 3584 2278 3584 
Q 2916 3584 3314 3078 
Q 3713 2572 3713 1747 
Q 3713 922 3314 415 
Q 2916 -91 2278 -91 
Q 1894 -91 1617 61 
Q 1341 213 1159 525 
z
M 3116 1747 
Q 3116 2381 2855 2742 
Q 2594 3103 2138 3103 
Q 1681 3103 1420 2742 
Q 1159 2381 1159 1747 
Q 1159 1113 1420 752 
Q 1681 391 2138 391 
Q 2594 391 2855 752 
Q 3116 1113 3116 1747 
z
" transform="scale(0.015625)"/>
       <path id="DejaVuSans-52" d="M 1959 3097 
Q 1497 3097 1228 2736 
Q 959 2375 959 1747 
Q 959 1119 1226 758 
Q 1494 397 1959 397 
Q 2419 397 2687 759 
Q 2956 1122 2956 1747 
Q 2956 2369 2687 2733 
Q 2419 3097 1959 3097 
z
M 1959 3584 
Q 2709 3584 3137 3096 
Q 3566 2609 3566 1747 
Q 3566 888 3137 398 
Q 2709 -91 1959 -91 
Q 1206 -91 779 398 
Q 353 888 353 1747 
Q 353 2609 779 3096 
Q 1206 3584 1959 3584 
z
" transform="scale(0.015625)"/>
       <path id="DejaVuSans-56" d="M 2834 3397 
L 2834 2853 
Q 2591 2978 2328 3040 
Q 2066 3103 1784 3103 
Q 1356 3103 1142 2972 
Q 928 2841 928 2578 
Q 928 2378 1081 2264 
Q 1234 2150 1697 2047 
L 1894 2003 
Q 2506 1872 2764 1633 
Q 3022 1394 3022 966 
Q 3022 478 2636 193 
Q 2250 -91 1575 -91 
Q 1294 -91 989 -36 
Q 684 19 347 128 
L 347 722 
Q 666 556 975 473 
Q 1284 391 1588 391 
Q 1994 391 2212 530 
Q 2431 669 2431 922 
Q 2431 1156 2273 1281 
Q 2116 1406 1581 1522 
L 1381 1569 
Q 847 1681 609 1914 
Q 372 2147 372 2553 
Q 372 3047 722 3315 
Q 1072 3584 1716 3584 
Q 2034 3584 2315 3537 
Q 2597 3491 2834 3397 
z
" transform="scale(0.015625)"/>
       <path id="DejaVuSans-4c" d="M 603 3500 
L 1178 3500 
L 1178 0 
L 603 0 
L 603 3500 
z
M 603 4863 
L 1178 4863 
L 1178 4134 
L 603 4134 
L 603 4863 
z
" transform="scale(0.015625)"/>
       <path id="DejaVuSans-51" d="M 3513 2113 
L 3513 0 
L 2938 0 
L 2938 2094 
Q 2938 2591 2744 2837 
Q 2550 3084 2163 3084 
Q 1697 3084 1428 2787 
Q 1159 2491 1159 1978 
L 1159 0 
L 581 0 
L 581 3500 
L 1159 3500 
L 1159 2956 
Q 1366 3272 1645 3428 
Q 1925 3584 2291 3584 
Q 2894 3584 3203 3211 
Q 3513 2838 3513 2113 
z
" transform="scale(0.015625)"/>
      </defs>
      <use xlink:href="#DejaVuSans-3a"/>
      <use xlink:href="#DejaVuSans-44" transform="translate(92.484375 0)"/>
      <use xlink:href="#DejaVuSans-59" transform="translate(153.765625 0)"/>
      <use xlink:href="#DejaVuSans-48" transform="translate(212.953125 0)"/>
      <use xlink:href="#DejaVuSans-57" transform="translate(274.484375 0)"/>
      <use xlink:href="#DejaVuSans-44" transform="translate(313.6875 0)"/>
      <use xlink:href="#DejaVuSans-45" transform="translate(374.96875 0)"/>
      <use xlink:href="#DejaVuSans-4f" transform="translate(438.453125 0)"/>
      <use xlink:href="#DejaVuSans-48" transform="translate(466.234375 0)"/>
      <use xlink:href="#DejaVuSans-3" transform="translate(527.765625 0)"/>
      <use xlink:href="#DejaVuSans-53" transform="translate(559.546875 0)"/>
      <use xlink:href="#DejaVuSans-52" transform="translate(623.03125 0)"/>
      <use xlink:href="#DejaVuSans-56" transform="translate(684.21875 0)"/>
      <use xlink:href="#DejaVuSans-4c" transform="translate(736.3125 0)"/>
      <use xlink:href="#DejaVuSans-57" transform="translate(764.09375 0)"/>
      <use xlink:href="#DejaVuSans-4c" transform="translate(803.296875 0)"/>
      <use xlink:href="#DejaVuSans-52" transform="translate(831.078125 0)"/>
      <use xlink:href="#DejaVuSans-51" transform="translate(892.265625 0)"/>
     </g>
    </g>
   </g>
   <g id="line2d_17">
    <path d="M 43.524687 57.238668 
L 47.239874 55.253491 
L 49.162772 54.484505 
L 50.847203 54.046014 
L 52.402711 53.869106 
L 53.93631 53.921595 
L 55.512884 54.206644 
L 57.203214 54.749369 
L 59.158131 55.625204 
L 61.755981 57.040485 
L 65.647279 59.144151 
L 67.570176 59.935516 
L 69.262191 60.400254 
L 70.832024 60.602118 
L 72.368151 60.571643 
L 73.909334 60.316425 
L 75.541522 59.820191 
L 77.457679 58.992034 
L 79.999072 57.629585 
L 84.310845 55.294986 
L 86.323905 54.484223 
L 88.007493 54.046014 
L 89.563001 53.869106 
L 91.096601 53.921595 
L 92.673174 54.206648 
L 94.302834 54.726081 
L 96.236686 55.584344 
L 98.912901 57.038564 
L 102.807569 59.144153 
L 104.799563 59.959109 
L 106.50506 60.416582 
L 108.067309 60.605911 
L 109.577315 60.566953 
L 111.14799 60.297688 
L 112.82231 59.77525 
L 114.736781 58.933671 
L 117.493889 57.43926 
L 121.387715 55.33415 
L 123.344318 54.531231 
L 125.002627 54.07805 
L 126.57246 53.876185 
L 128.108587 53.906663 
L 129.623648 54.155753 
L 131.281958 54.658114 
L 133.159353 55.46738 
L 135.589518 56.763756 
L 140.145656 59.22715 
L 142.063498 59.993801 
L 143.775736 60.437442 
L 145.327874 60.610138 
L 146.837037 60.556708 
L 148.41361 60.271655 
L 150.10394 59.72893 
L 151.977965 58.893538 
L 154.745185 57.387342 
L 158.814279 55.210513 
L 160.778465 54.440641 
L 162.436775 54.026285 
L 163.983014 53.865634 
L 165.516613 53.932779 
L 167.099085 54.233642 
L 168.745598 54.773254 
L 170.722424 55.667227 
L 173.423076 57.146757 
L 177.134049 59.14694 
L 179.190926 59.982891 
L 180.853449 60.421942 
L 182.41317 60.607069 
L 183.947612 60.561947 
L 185.520815 60.284894 
L 187.173226 59.763768 
L 189.138255 58.893536 
L 191.905475 57.387346 
L 192.165007 57.239148 
L 192.165007 57.239148 
" clip-path="url(#p076a864ead)" style="fill: none; stroke: #2a78d6; stroke-width: 1.5; stroke-linecap: square"/>
   </g>
   <g id="patch_3">
    <path d="M 43.524687 94.399442 
L 43.524687 20.078861 
" style="fill: none; stroke: #000000; stroke-width: 0.8; stroke-linejoin: miter; stroke-linecap: square"/>
   </g>
   <g id="patch_4">
    <path d="M 43.524687 94.399442 
L 192.16585 94.399442 
" style="fill: none; stroke: #000000; stroke-width: 0.8; stroke-linejoin: miter; stroke-linecap: square"/>
   </g>
   <g id="text_10">
    <!-- Reference (0.1) -->
    <g transform="translate(71.499019 14.078861) scale(0.12 -0.12)">
     <defs>
      <path id="DejaVuSans-35" d="M 2841 2188 
Q 3044 2119 3236 1894 
Q 3428 1669 3622 1275 
L 4263 0 
L 3584 0 
L 2988 1197 
Q 2756 1666 2539 1819 
Q 2322 1972 1947 1972 
L 1259 1972 
L 1259 0 
L 628 0 
L 628 4666 
L 2053 4666 
Q 2853 4666 3247 4331 
Q 3641 3997 3641 3322 
Q 3641 2881 3436 2590 
Q 3231 2300 2841 2188 
z
M 1259 4147 
L 1259 2491 
L 2053 2491 
Q 2509 2491 2742 2702 
Q 2975 2913 2975 3322 
Q 2975 3731 2742 3939 
Q 2509 4147 2053 4147 
L 1259 4147 
z
" transform="scale(0.015625)"/>
      <path id="DejaVuSans-49" d="M 2375 4863 
L 2375 4384 
L 1825 4384 
Q 1516 4384 1395 4259 
Q 1275 4134 1275 3809 
L 1275 3500 
L 2222 3500 
L 2222 3053 
L 1275 3053 
L 1275 0 
L 697 0 
L 697 3053 
L 147 3053 
L 147 3500 
L 697 3500 
L 697 3744 
Q 697 4328 969 4595 
Q 1241 4863 1831 4863 
L 2375 4863 
z
" transform="scale(0.015625)"/>
      <path id="DejaVuSans-55" d="M 2631 2963 
Q 2534 3019 2420 3045 
Q 2306 3072 2169 3072 
Q 1681 3072 1420 2755 
Q 1159 2438 1159 1844 
L 1159 0 
L 581 0 
L 581 3500 
L 1159 3500 
L 1159 2956 
Q 1341 3275 1631 3429 
Q 1922 3584 2338 3584 
Q 2397 3584 2469 3576 
Q 2541 3569 2628 3553 
L 2631 2963 
z
" transform="scale(0.015625)"/>
      <path id="DejaVuSans-46" d="M 3122 3366 
L 3122 2828 
Q 2878 2963 2633 3030 
Q 2388 3097 2138 3097 
Q 1578 3097 1268 2742 
Q 959 2388 959 1747 
Q 959 1106 1268 751 
Q 1578 397 2138 397 
Q 2388 397 2633 464 
Q 2878 531 3122 666 
L 3122 134 
Q 2881 22 2623 -34 
Q 2366 -91 2075 -91 
Q 1284 -91 818 406 
Q 353 903 353 1747 
Q 353 2603 823 3093 
Q 1294 3584 2113 3584 
Q 2378 3584 2631 3529 
Q 2884 3475 3122 3366 
z
" transform="scale(0.015625)"/>
      <path id="DejaVuSans-b" d="M 1984 4856 
Q 1566 4138 1362 3434 
Q 1159 2731 1159 2009 
Q 1159 1288 1364 580 
Q 1569 -128 1984 -844 
L 1484 -844 
Q 1016 -109 783 600 
Q 550 1309 550 2009 
Q 550 2706 781 3412 
Q 1013 4119 1484 4856 
L 1984 4856 
z
" transform="scale(0.015625)"/>
      <path id="DejaVuSans-c" d="M 513 4856 
L 1013 4856 
Q 1481 4119 1714 3412 
Q 1947 2706 1947 2009 
Q 1947 1309 1714 600 
Q 1481 -109 1013 -844 
L 513 -844 
Q 928 -128 1133 580 
Q 1338 1288 1338 2009 
Q 1338 2731 1133 3434 
Q 928 4138 513 4856 
z
" transform="scale(0.015625)"/>
     </defs>
     <use xlink:href="#DejaVuSans-35"/>
     <use xlink:href="#DejaVuSans-48" transform="translate(65 0)"/>
     <use xlink:href="#DejaVuSans-49" transform="translate(126.53125 0)"/>
     <use xlink:href="#DejaVuSans-48" transform="translate(161.734375 0)"/>
     <use xlink:href="#DejaVuSans-55" transform="translate(223.265625 0)"/>
     <use xlink:href="#DejaVuSans-48" transform="translate(262.171875 0)"/>
     <use xlink:href="#DejaVuSans-51" transform="translate(323.703125 0)"/>
     <use xlink:href="#DejaVuSans-46" transform="translate(387.078125 0)"/>
     <use xlink:href="#DejaVuSans-48" transform="translate(442.0625 0)"/>
     <use xlink:href="#DejaVuSans-3" transform="translate(503.59375 0)"/>
     <use xlink:href="#DejaVuSans-b" transform="translate(535.375 0)"/>
     <use xlink:href="#DejaVuSans-13" transform="translate(574.390625 0)"/>
     <use xlink:href="#DejaVuSans-11" transform="translate(638.015625 0)"/>
     <use xlink:href="#DejaVuSans-14" transform="translate(669.796875 0)"/>
     <use xlink:href="#DejaVuSans-c" transform="translate(733.421875 0)"/>
    </g>
   </g>
  </g>
  <g id="axes_2">
   <g id="patch_5">
    <path d="M 210.16885 94.399442 
L 358.810012 94.399442 
L 358.810012 20.078861 
L 210.16885 20.078861 
z
" style="fill: #ffffff"/>
   </g>
   <g id="matplotlib.axis_3">
    <g id="xtick_6">
     <g id="line2d_18">
      <path d="M 210.16885 94.399442 
L 210.16885 20.078861 
" clip-path="url(#p23a1acc1e8)" style="fill: none; stroke: #52514e; stroke-opacity: 0.15; stroke-width: 0.8; stroke-linecap: square"/>
     </g>
     <g id="line2d_19">
      <g>
       <use xlink:href="#mb86fb6464f" x="210.16885" y="94.399442" style="stroke: #000000; stroke-width: 0.8"/>
      </g>
     </g>
     <g id="text_11">
      <!-- 0 -->
      <g transform="translate(206.35135 110.51663) scale(0.12 -0.12)">
       <use xlink:href="#DejaVuSans-13"/>
      </g>
     </g>
    </g>
    <g id="xtick_7">
     <g id="line2d_20">
      <path d="M 247.329141 94.399442 
L 247.329141 20.078861 
" clip-path="url(#p23a1acc1e8)" style="fill: none; stroke: #52514e; stroke-opacity: 0.15; stroke-width: 0.8; stroke-linecap: square"/>
     </g>
     <g id="line2d_21">
      <g>
       <use xlink:href="#mb86fb6464f" x="247.329141" y="94.399442" style="stroke: #000000; stroke-width: 0.8"/>
      </g>
     </g>
     <g id="text_12">
      <!-- 1 -->
      <g transform="translate(243.511641 110.51663) scale(0.12 -0.12)">
       <use xlink:href="#DejaVuSans-14"/>
      </g>
     </g>
    </g>
    <g id="xtick_8">
     <g id="line2d_22">
      <path d="M 284.489431 94.399442 
L 284.489431 20.078861 
" clip-path="url(#p23a1acc1e8)" style="fill: none; stroke: #52514e; stroke-opacity: 0.15; stroke-width: 0.8; stroke-linecap: square"/>
     </g>
     <g id="line2d_23">
      <g>
       <use xlink:href="#mb86fb6464f" x="284.489431" y="94.399442" style="stroke: #000000; stroke-width: 0.8"/>
      </g>
     </g>
     <g id="text_13">
      <!-- 2 -->
      <g transform="translate(280.671931 110.51663) scale(0.12 -0.12)">
       <use xlink:href="#DejaVuSans-15"/>
      </g>
     </g>
    </g>
    <g id="xtick_9">
     <g id="line2d_24">
      <path d="M 321.649722 94.399442 
L 321.649722 20.078861 
" clip-path="url(#p23a1acc1e8)" style="fill: none; stroke: #52514e; stroke-opacity: 0.15; stroke-width: 0.8; stroke-linecap: square"/>
     </g>
     <g id="line2d_25">
      <g>
       <use xlink:href="#mb86fb6464f" x="321.649722" y="94.399442" style="stroke: #000000; stroke-width: 0.8"/>
      </g>
     </g>
     <g id="text_14">
      <!-- 3 -->
      <g transform="translate(317.832222 110.51663) scale(0.12 -0.12)">
       <use xlink:href="#DejaVuSans-16"/>
      </g>
     </g>
    </g>
    <g id="xtick_10">
     <g id="line2d_26">
      <path d="M 358.810012 94.399442 
L 358.810012 20.078861 
" clip-path="url(#p23a1acc1e8)" style="fill: none; stroke: #52514e; stroke-opacity: 0.15; stroke-width: 0.8; stroke-linecap: square"/>
     </g>
     <g id="line2d_27">
      <g>
       <use xlink:href="#mb86fb6464f" x="358.810012" y="94.399442" style="stroke: #000000; stroke-width: 0.8"/>
      </g>
     </g>
     <g id="text_15">
      <!-- 4 -->
      <g transform="translate(354.992512 110.51663) scale(0.12 -0.12)">
       <use xlink:href="#DejaVuSans-17"/>
      </g>
     </g>
    </g>
   </g>
   <g id="matplotlib.axis_4">
    <g id="ytick_4">
     <g id="line2d_28">
      <path d="M 210.16885 91.021234 
L 358.810012 91.021234 
" clip-path="url(#p23a1acc1e8)" style="fill: none; stroke: #52514e; stroke-opacity: 0.15; stroke-width: 0.8; stroke-linecap: square"/>
     </g>
     <g id="line2d_29">
      <g>
       <use xlink:href="#m36dbb3258b" x="210.16885" y="91.021234" style="stroke: #000000; stroke-width: 0.8"/>
      </g>
     </g>
    </g>
    <g id="ytick_5">
     <g id="line2d_30">
      <path d="M 210.16885 57.239152 
L 358.810012 57.239152 
" clip-path="url(#p23a1acc1e8)" style="fill: none; stroke: #52514e; stroke-opacity: 0.15; stroke-width: 0.8; stroke-linecap: square"/>
     </g>
     <g id="line2d_31">
      <g>
       <use xlink:href="#m36dbb3258b" x="210.16885" y="57.239152" style="stroke: #000000; stroke-width: 0.8"/>
      </g>
     </g>
    </g>
    <g id="ytick_6">
     <g id="line2d_32">
      <path d="M 210.16885 23.457069 
L 358.810012 23.457069 
" clip-path="url(#p23a1acc1e8)" style="fill: none; stroke: #52514e; stroke-opacity: 0.15; stroke-width: 0.8; stroke-linecap: square"/>
     </g>
     <g id="line2d_33">
      <g>
       <use xlink:href="#m36dbb3258b" x="210.16885" y="23.457069" style="stroke: #000000; stroke-width: 0.8"/>
      </g>
     </g>
    </g>
   </g>
   <g id="line2d_34">
    <path d="M 210.16885 57.237706 
L 213.151785 52.340315 
L 214.72246 50.183481 
L 216.007482 48.781062 
L 217.119762 47.886373 
L 218.108176 47.367372 
L 219.024122 47.131796 
L 219.908048 47.133846 
L 220.786919 47.359265 
L 221.730672 47.843577 
L 222.707288 48.59589 
L 223.846533 49.768831 
L 225.147565 51.443339 
L 226.742677 53.868062 
L 229.450912 58.44057 
L 231.949331 62.460727 
L 233.444169 64.46692 
L 234.676946 65.780595 
L 235.786699 66.648205 
L 236.770057 67.141681 
L 237.675891 67.354763 
L 238.553077 67.3354 
L 239.434475 67.092658 
L 240.35632 66.60522 
L 241.346418 65.829206 
L 242.493247 64.631914 
L 243.84905 62.863185 
L 245.49809 60.325566 
L 251.591198 50.55055 
L 252.881276 49.061331 
L 254.03316 48.057418 
L 255.040112 47.463246 
L 255.961114 47.167042 
L 256.85768 47.11282 
L 257.744134 47.287574 
L 258.658395 47.701479 
L 259.654392 48.410795 
L 260.724541 49.450582 
L 261.970801 50.979191 
L 263.576024 53.345131 
L 266.128372 57.615939 
L 268.865256 62.097491 
L 270.462896 64.294822 
L 271.727694 65.678104 
L 272.842503 66.580215 
L 273.849454 67.111262 
L 274.764558 67.346507 
L 275.648484 67.344457 
L 276.527354 67.119034 
L 277.434874 66.65783 
L 278.447724 65.882409 
L 279.521244 64.785114 
L 280.770032 63.199628 
L 282.264027 60.961892 
L 284.478477 57.256478 
L 287.408326 52.436673 
L 288.963834 50.281542 
L 290.288459 48.818644 
L 291.3881 47.921216 
L 292.363874 47.393121 
L 293.296673 47.138163 
L 294.179756 47.127825 
L 295.056099 47.340015 
L 295.979629 47.798251 
L 296.988266 48.560645 
L 298.122455 49.717328 
L 299.442024 51.406672 
L 301.140781 53.993625 
L 307.491735 64.131397 
L 308.766645 65.5612 
L 309.916002 66.521515 
L 310.895146 67.065006 
L 311.812778 67.330616 
L 312.695019 67.357404 
L 313.568833 67.162398 
L 314.469612 66.735127 
L 315.462239 66.010208 
L 316.582946 64.896833 
L 317.877236 63.272954 
L 319.370389 61.047686 
L 321.918523 56.777239 
L 324.636027 52.335257 
L 326.17721 50.215674 
L 327.509419 48.761225 
L 328.600634 47.886369 
L 329.589047 47.367364 
L 330.521004 47.129819 
L 331.40493 47.135968 
L 332.284643 47.365745 
L 333.193848 47.832252 
L 334.207541 48.61328 
L 335.349314 49.794266 
L 336.603158 51.407864 
L 338.261467 53.929412 
L 341.572188 59.521065 
L 343.608841 62.72067 
L 345.061548 64.628958 
L 346.274945 65.886943 
L 347.345094 66.69676 
L 348.315812 67.164742 
L 349.21322 67.360227 
L 350.099674 67.324982 
L 350.9836 67.064641 
L 351.900389 66.563317 
L 352.925878 65.738366 
L 354.085347 64.500234 
L 355.468114 62.664669 
L 357.251134 59.878208 
L 358.80917 57.239144 
L 358.80917 57.239144 
" clip-path="url(#p23a1acc1e8)" style="fill: none; stroke: #2a78d6; stroke-width: 1.5; stroke-linecap: square"/>
   </g>
   <g id="patch_6">
    <path d="M 210.16885 94.399442 
L 210.16885 20.078861 
" style="fill: none; stroke: #000000; stroke-width: 0.8; stroke-linejoin: miter; stroke-linecap: square"/>
   </g>
   <g id="patch_7">
    <path d="M 210.16885 94.399442 
L 358.810012 94.399442 
" style="fill: none; stroke: #000000; stroke-width: 0.8; stroke-linejoin: miter; stroke-linecap: square"/>
   </g>
   <g id="text_16">
    <!-- Amount 1 (0.3) -->
    <g transform="translate(239.057244 14.078861) scale(0.12 -0.12)">
     <defs>
      <path id="DejaVuSans-24" d="M 2188 4044 
L 1331 1722 
L 3047 1722 
L 2188 4044 
z
M 1831 4666 
L 2547 4666 
L 4325 0 
L 3669 0 
L 3244 1197 
L 1141 1197 
L 716 0 
L 50 0 
L 1831 4666 
z
" transform="scale(0.015625)"/>
      <path id="DejaVuSans-50" d="M 3328 2828 
Q 3544 3216 3844 3400 
Q 4144 3584 4550 3584 
Q 5097 3584 5394 3201 
Q 5691 2819 5691 2113 
L 5691 0 
L 5113 0 
L 5113 2094 
Q 5113 2597 4934 2840 
Q 4756 3084 4391 3084 
Q 3944 3084 3684 2787 
Q 3425 2491 3425 1978 
L 3425 0 
L 2847 0 
L 2847 2094 
Q 2847 2600 2669 2842 
Q 2491 3084 2119 3084 
Q 1678 3084 1418 2786 
Q 1159 2488 1159 1978 
L 1159 0 
L 581 0 
L 581 3500 
L 1159 3500 
L 1159 2956 
Q 1356 3278 1631 3431 
Q 1906 3584 2284 3584 
Q 2666 3584 2933 3390 
Q 3200 3197 3328 2828 
z
" transform="scale(0.015625)"/>
      <path id="DejaVuSans-58" d="M 544 1381 
L 544 3500 
L 1119 3500 
L 1119 1403 
Q 1119 906 1312 657 
Q 1506 409 1894 409 
Q 2359 409 2629 706 
Q 2900 1003 2900 1516 
L 2900 3500 
L 3475 3500 
L 3475 0 
L 2900 0 
L 2900 538 
Q 2691 219 2414 64 
Q 2138 -91 1772 -91 
Q 1169 -91 856 284 
Q 544 659 544 1381 
z
M 1991 3584 
L 1991 3584 
z
" transform="scale(0.015625)"/>
     </defs>
     <use xlink:href="#DejaVuSans-24"/>
     <use xlink:href="#DejaVuSans-50" transform="translate(68.40625 0)"/>
     <use xlink:href="#DejaVuSans-52" transform="translate(165.8125 0)"/>
     <use xlink:href="#DejaVuSans-58" transform="translate(227 0)"/>
     <use xlink:href="#DejaVuSans-51" transform="translate(290.375 0)"/>
     <use xlink:href="#DejaVuSans-57" transform="translate(353.75 0)"/>
     <use xlink:href="#DejaVuSans-3" transform="translate(392.953125 0)"/>
     <use xlink:href="#DejaVuSans-14" transform="translate(424.734375 0)"/>
     <use xlink:href="#DejaVuSans-3" transform="translate(488.359375 0)"/>
     <use xlink:href="#DejaVuSans-b" transform="translate(520.140625 0)"/>
     <use xlink:href="#DejaVuSans-13" transform="translate(559.15625 0)"/>
     <use xlink:href="#DejaVuSans-11" transform="translate(622.78125 0)"/>
     <use xlink:href="#DejaVuSans-16" transform="translate(654.5625 0)"/>
     <use xlink:href="#DejaVuSans-c" transform="translate(718.1875 0)"/>
    </g>
   </g>
  </g>
  <g id="axes_3">
   <g id="patch_8">
    <path d="M 376.813012 94.399442 
L 525.454175 94.399442 
L 525.454175 20.078861 
L 376.813012 20.078861 
z
" style="fill: #ffffff"/>
   </g>
   <g id="matplotlib.axis_5">
    <g id="xtick_11">
     <g id="line2d_35">
      <path d="M 376.813012 94.399442 
L 376.813012 20.078861 
" clip-path="url(#pff1aa46698)" style="fill: none; stroke: #52514e; stroke-opacity: 0.15; stroke-width: 0.8; stroke-linecap: square"/>
     </g>
     <g id="line2d_36">
      <g>
       <use xlink:href="#mb86fb6464f" x="376.813012" y="94.399442" style="stroke: #000000; stroke-width: 0.8"/>
      </g>
     </g>
     <g id="text_17">
      <!-- 0 -->
      <g transform="translate(372.995512 110.51663) scale(0.12 -0.12)">
       <use xlink:href="#DejaVuSans-13"/>
      </g>
     </g>
    </g>
    <g id="xtick_12">
     <g id="line2d_37">
      <path d="M 413.973303 94.399442 
L 413.973303 20.078861 
" clip-path="url(#pff1aa46698)" style="fill: none; stroke: #52514e; stroke-opacity: 0.15; stroke-width: 0.8; stroke-linecap: square"/>
     </g>
     <g id="line2d_38">
      <g>
       <use xlink:href="#mb86fb6464f" x="413.973303" y="94.399442" style="stroke: #000000; stroke-width: 0.8"/>
      </g>
     </g>
     <g id="text_18">
      <!-- 1 -->
      <g transform="translate(410.155803 110.51663) scale(0.12 -0.12)">
       <use xlink:href="#DejaVuSans-14"/>
      </g>
     </g>
    </g>
    <g id="xtick_13">
     <g id="line2d_39">
      <path d="M 451.133594 94.399442 
L 451.133594 20.078861 
" clip-path="url(#pff1aa46698)" style="fill: none; stroke: #52514e; stroke-opacity: 0.15; stroke-width: 0.8; stroke-linecap: square"/>
     </g>
     <g id="line2d_40">
      <g>
       <use xlink:href="#mb86fb6464f" x="451.133594" y="94.399442" style="stroke: #000000; stroke-width: 0.8"/>
      </g>
     </g>
     <g id="text_19">
      <!-- 2 -->
      <g transform="translate(447.316094 110.51663) scale(0.12 -0.12)">
       <use xlink:href="#DejaVuSans-15"/>
      </g>
     </g>
    </g>
    <g id="xtick_14">
     <g id="line2d_41">
      <path d="M 488.293884 94.399442 
L 488.293884 20.078861 
" clip-path="url(#pff1aa46698)" style="fill: none; stroke: #52514e; stroke-opacity: 0.15; stroke-width: 0.8; stroke-linecap: square"/>
     </g>
     <g id="line2d_42">
      <g>
       <use xlink:href="#mb86fb6464f" x="488.293884" y="94.399442" style="stroke: #000000; stroke-width: 0.8"/>
      </g>
     </g>
     <g id="text_20">
      <!-- 3 -->
      <g transform="translate(484.476384 110.51663) scale(0.12 -0.12)">
       <use xlink:href="#DejaVuSans-16"/>
      </g>
     </g>
    </g>
    <g id="xtick_15">
     <g id="line2d_43">
      <path d="M 525.454175 94.399442 
L 525.454175 20.078861 
" clip-path="url(#pff1aa46698)" style="fill: none; stroke: #52514e; stroke-opacity: 0.15; stroke-width: 0.8; stroke-linecap: square"/>
     </g>
     <g id="line2d_44">
      <g>
       <use xlink:href="#mb86fb6464f" x="525.454175" y="94.399442" style="stroke: #000000; stroke-width: 0.8"/>
      </g>
     </g>
     <g id="text_21">
      <!-- 4 -->
      <g transform="translate(521.636675 110.51663) scale(0.12 -0.12)">
       <use xlink:href="#DejaVuSans-17"/>
      </g>
     </g>
    </g>
   </g>
   <g id="matplotlib.axis_6">
    <g id="ytick_7">
     <g id="line2d_45">
      <path d="M 376.813012 91.021234 
L 525.454175 91.021234 
" clip-path="url(#pff1aa46698)" style="fill: none; stroke: #52514e; stroke-opacity: 0.15; stroke-width: 0.8; stroke-linecap: square"/>
     </g>
     <g id="line2d_46">
      <g>
       <use xlink:href="#m36dbb3258b" x="376.813012" y="91.021234" style="stroke: #000000; stroke-width: 0.8"/>
      </g>
     </g>
    </g>
    <g id="ytick_8">
     <g id="line2d_47">
      <path d="M 376.813012 57.239152 
L 525.454175 57.239152 
" clip-path="url(#pff1aa46698)" style="fill: none; stroke: #52514e; stroke-opacity: 0.15; stroke-width: 0.8; stroke-linecap: square"/>
     </g>
     <g id="line2d_48">
      <g>
       <use xlink:href="#m36dbb3258b" x="376.813012" y="57.239152" style="stroke: #000000; stroke-width: 0.8"/>
      </g>
     </g>
    </g>
    <g id="ytick_9">
     <g id="line2d_49">
      <path d="M 376.813012 23.457069 
L 525.454175 23.457069 
" clip-path="url(#pff1aa46698)" style="fill: none; stroke: #52514e; stroke-opacity: 0.15; stroke-width: 0.8; stroke-linecap: square"/>
     </g>
     <g id="line2d_50">
      <g>
       <use xlink:href="#m36dbb3258b" x="376.813012" y="23.457069" style="stroke: #000000; stroke-width: 0.8"/>
      </g>
     </g>
    </g>
   </g>
   <g id="line2d_51">
    <path d="M 376.813012 57.236743 
L 379.72011 49.264697 
L 381.229273 45.764442 
L 382.447726 43.471486 
L 383.485012 41.975203 
L 384.370624 41.066942 
L 385.150063 40.56655 
L 385.852822 40.363128 
L 386.535358 40.393383 
L 387.225478 40.651825 
L 387.960257 41.174817 
L 388.773402 42.041796 
L 389.704516 43.385595 
L 390.738431 45.277537 
L 391.962783 47.9842 
L 393.60761 52.219062 
L 396.811316 61.25304 
L 398.738427 66.293898 
L 400.173437 69.454561 
L 401.305941 71.451526 
L 402.301938 72.780381 
L 403.165641 73.57777 
L 403.924015 73.991518 
L 404.624246 74.129377 
L 405.305939 74.036399 
L 406.008698 73.707233 
L 406.756117 73.102463 
L 407.588643 72.13153 
L 408.532396 70.675889 
L 409.655631 68.50206 
L 411.029972 65.300443 
L 412.885459 60.326164 
L 417.252846 48.343417 
L 418.710608 45.108824 
L 419.891985 43.017684 
L 420.86186 41.72064 
L 421.722193 40.917753 
L 422.485622 40.493635 
L 423.190066 40.349379 
L 423.87176 40.43765 
L 424.562722 40.754638 
L 425.31941 41.359373 
L 426.156991 42.330904 
L 427.094003 43.770396 
L 428.213868 45.9297 
L 429.508158 48.923184 
L 431.195118 53.39613 
L 436.086625 66.742293 
L 437.482875 69.744841 
L 438.591785 71.642078 
L 439.548178 72.874892 
L 440.400927 73.630785 
L 441.153401 74.015609 
L 441.846049 74.130189 
L 442.521001 74.019217 
L 443.227131 73.669508 
L 443.977921 73.041267 
L 444.832354 72.017629 
L 445.764311 70.550953 
L 446.897658 68.327034 
L 448.293065 65.041228 
L 450.210064 59.86365 
L 454.684466 47.694287 
L 456.01499 44.826082 
L 457.132326 42.895638 
L 458.092933 41.641933 
L 458.93894 40.876978 
L 459.701527 40.473576 
L 460.397545 40.348263 
L 461.080923 40.452574 
L 461.775256 40.787821 
L 462.535315 41.414207 
L 463.388906 42.428167 
L 464.306538 43.860967 
L 465.433143 46.055382 
L 466.816753 49.294438 
L 468.475905 53.732034 
L 473.547737 67.439981 
L 474.922078 70.266206 
L 476.046156 72.062861 
L 476.96126 73.133653 
L 477.79547 73.779369 
L 478.521823 74.074328 
L 479.205202 74.120318 
L 479.886895 73.941888 
L 480.59471 73.522123 
L 481.374992 72.789776 
L 482.258076 71.635771 
L 483.227951 70.000371 
L 484.346973 67.691319 
L 485.830014 64.07195 
L 488.016657 58.028183 
L 491.47821 48.575718 
L 492.988215 45.194545 
L 494.142628 43.126437 
L 495.120929 41.790837 
L 496.014124 40.939012 
L 496.769127 40.507835 
L 497.473572 40.351006 
L 498.152737 40.426394 
L 498.852126 40.735457 
L 499.595331 41.316359 
L 500.430385 42.268028 
L 501.388463 43.725518 
L 502.504957 45.867291 
L 503.757958 48.747838 
L 505.544349 53.47588 
L 510.761114 67.560396 
L 512.047821 70.203177 
L 513.129767 71.95665 
L 514.092058 73.104952 
L 514.909416 73.75203 
L 515.65852 74.068718 
L 516.346112 74.12212 
L 517.026963 73.950389 
L 517.728879 73.541804 
L 518.512532 72.815026 
L 519.39393 71.672157 
L 520.414363 69.951377 
L 521.615964 67.445687 
L 523.1167 63.740267 
L 525.453332 57.239139 
L 525.453332 57.239139 
" clip-path="url(#pff1aa46698)" style="fill: none; stroke: #2a78d6; stroke-width: 1.5; stroke-linecap: square"/>
   </g>
   <g id="patch_9">
    <path d="M 376.813012 94.399442 
L 376.813012 20.078861 
" style="fill: none; stroke: #000000; stroke-width: 0.8; stroke-linejoin: miter; stroke-linecap: square"/>
   </g>
   <g id="patch_10">
    <path d="M 376.813012 94.399442 
L 525.454175 94.399442 
" style="fill: none; stroke: #000000; stroke-width: 0.8; stroke-linejoin: miter; stroke-linecap: square"/>
   </g>
   <g id="text_22">
    <!-- Amount 2 (0.5) -->
    <g transform="translate(405.701406 14.078861) scale(0.12 -0.12)">
     <use xlink:href="#DejaVuSans-24"/>
     <use xlink:href="#DejaVuSans-50" transform="translate(68.40625 0)"/>
     <use xlink:href="#DejaVuSans-52" transform="translate(165.8125 0)"/>
     <use xlink:href="#DejaVuSans-58" transform="translate(227 0)"/>
     <use xlink:href="#DejaVuSans-51" transform="translate(290.375 0)"/>
     <use xlink:href="#DejaVuSans-57" transform="translate(353.75 0)"/>
     <use xlink:href="#DejaVuSans-3" transform="translate(392.953125 0)"/>
     <use xlink:href="#DejaVuSans-15" transform="translate(424.734375 0)"/>
     <use xlink:href="#DejaVuSans-3" transform="translate(488.359375 0)"/>
     <use xlink:href="#DejaVuSans-b" transform="translate(520.140625 0)"/>
     <use xlink:href="#DejaVuSans-13" transform="translate(559.15625 0)"/>
     <use xlink:href="#DejaVuSans-11" transform="translate(622.78125 0)"/>
     <use xlink:href="#DejaVuSans-18" transform="translate(654.5625 0)"/>
     <use xlink:href="#DejaVuSans-c" transform="translate(718.1875 0)"/>
    </g>
   </g>
  </g>
  <g id="axes_4">
   <g id="patch_11">
    <path d="M 543.457175 94.399442 
L 692.098337 94.399442 
L 692.098337 20.078861 
L 543.457175 20.078861 
z
" style="fill: #ffffff"/>
   </g>
   <g id="matplotlib.axis_7">
    <g id="xtick_16">
     <g id="line2d_52">
      <path d="M 543.457175 94.399442 
L 543.457175 20.078861 
" clip-path="url(#p80883eee84)" style="fill: none; stroke: #52514e; stroke-opacity: 0.15; stroke-width: 0.8; stroke-linecap: square"/>
     </g>
     <g id="line2d_53">
      <g>
       <use xlink:href="#mb86fb6464f" x="543.457175" y="94.399442" style="stroke: #000000; stroke-width: 0.8"/>
      </g>
     </g>
     <g id="text_23">
      <!-- 0 -->
      <g transform="translate(539.639675 110.51663) scale(0.12 -0.12)">
       <use xlink:href="#DejaVuSans-13"/>
      </g>
     </g>
    </g>
    <g id="xtick_17">
     <g id="line2d_54">
      <path d="M 580.617466 94.399442 
L 580.617466 20.078861 
" clip-path="url(#p80883eee84)" style="fill: none; stroke: #52514e; stroke-opacity: 0.15; stroke-width: 0.8; stroke-linecap: square"/>
     </g>
     <g id="line2d_55">
      <g>
       <use xlink:href="#mb86fb6464f" x="580.617466" y="94.399442" style="stroke: #000000; stroke-width: 0.8"/>
      </g>
     </g>
     <g id="text_24">
      <!-- 1 -->
      <g transform="translate(576.799966 110.51663) scale(0.12 -0.12)">
       <use xlink:href="#DejaVuSans-14"/>
      </g>
     </g>
    </g>
    <g id="xtick_18">
     <g id="line2d_56">
      <path d="M 617.777756 94.399442 
L 617.777756 20.078861 
" clip-path="url(#p80883eee84)" style="fill: none; stroke: #52514e; stroke-opacity: 0.15; stroke-width: 0.8; stroke-linecap: square"/>
     </g>
     <g id="line2d_57">
      <g>
       <use xlink:href="#mb86fb6464f" x="617.777756" y="94.399442" style="stroke: #000000; stroke-width: 0.8"/>
      </g>
     </g>
     <g id="text_25">
      <!-- 2 -->
      <g transform="translate(613.960256 110.51663) scale(0.12 -0.12)">
       <use xlink:href="#DejaVuSans-15"/>
      </g>
     </g>
    </g>
    <g id="xtick_19">
     <g id="line2d_58">
      <path d="M 654.938047 94.399442 
L 654.938047 20.078861 
" clip-path="url(#p80883eee84)" style="fill: none; stroke: #52514e; stroke-opacity: 0.15; stroke-width: 0.8; stroke-linecap: square"/>
     </g>
     <g id="line2d_59">
      <g>
       <use xlink:href="#mb86fb6464f" x="654.938047" y="94.399442" style="stroke: #000000; stroke-width: 0.8"/>
      </g>
     </g>
     <g id="text_26">
      <!-- 3 -->
      <g transform="translate(651.120547 110.51663) scale(0.12 -0.12)">
       <use xlink:href="#DejaVuSans-16"/>
      </g>
     </g>
    </g>
    <g id="xtick_20">
     <g id="line2d_60">
      <path d="M 692.098337 94.399442 
L 692.098337 20.078861 
" clip-path="url(#p80883eee84)" style="fill: none; stroke: #52514e; stroke-opacity: 0.15; stroke-width: 0.8; stroke-linecap: square"/>
     </g>
     <g id="line2d_61">
      <g>
       <use xlink:href="#mb86fb6464f" x="692.098337" y="94.399442" style="stroke: #000000; stroke-width: 0.8"/>
      </g>
     </g>
     <g id="text_27">
      <!-- 4 -->
      <g transform="translate(688.280837 110.51663) scale(0.12 -0.12)">
       <use xlink:href="#DejaVuSans-17"/>
      </g>
     </g>
    </g>
   </g>
   <g id="matplotlib.axis_8">
    <g id="ytick_10">
     <g id="line2d_62">
      <path d="M 543.457175 91.021234 
L 692.098337 91.021234 
" clip-path="url(#p80883eee84)" style="fill: none; stroke: #52514e; stroke-opacity: 0.15; stroke-width: 0.8; stroke-linecap: square"/>
     </g>
     <g id="line2d_63">
      <g>
       <use xlink:href="#m36dbb3258b" x="543.457175" y="91.021234" style="stroke: #000000; stroke-width: 0.8"/>
      </g>
     </g>
    </g>
    <g id="ytick_11">
     <g id="line2d_64">
      <path d="M 543.457175 57.239152 
L 692.098337 57.239152 
" clip-path="url(#p80883eee84)" style="fill: none; stroke: #52514e; stroke-opacity: 0.15; stroke-width: 0.8; stroke-linecap: square"/>
     </g>
     <g id="line2d_65">
      <g>
       <use xlink:href="#m36dbb3258b" x="543.457175" y="57.239152" style="stroke: #000000; stroke-width: 0.8"/>
      </g>
     </g>
    </g>
    <g id="ytick_12">
     <g id="line2d_66">
      <path d="M 543.457175 23.457069 
L 692.098337 23.457069 
" clip-path="url(#p80883eee84)" style="fill: none; stroke: #52514e; stroke-opacity: 0.15; stroke-width: 0.8; stroke-linecap: square"/>
     </g>
     <g id="line2d_67">
      <g>
       <use xlink:href="#m36dbb3258b" x="543.457175" y="23.457069" style="stroke: #000000; stroke-width: 0.8"/>
      </g>
     </g>
    </g>
   </g>
   <g id="line2d_68">
    <path d="M 543.457175 57.235781 
L 546.342364 46.152219 
L 547.835517 41.286152 
L 549.022792 38.125799 
L 550.012891 36.072852 
L 550.849629 34.797458 
L 551.589464 34.042712 
L 552.235767 33.679782 
L 552.826456 33.593859 
L 553.405347 33.73832 
L 554.000249 34.121136 
L 554.657506 34.815584 
L 555.405767 35.942313 
L 556.2661 37.657161 
L 557.263782 40.160873 
L 558.453585 43.773683 
L 559.932413 49.002627 
L 562.507512 59.120552 
L 565.04722 68.764039 
L 566.528575 73.522488 
L 567.676247 76.523642 
L 568.678142 78.554997 
L 569.510668 79.780714 
L 570.247132 80.493848 
L 570.883323 80.820236 
L 571.469799 80.879672 
L 572.042792 80.713408 
L 572.64612 80.300443 
L 573.315174 79.562369 
L 574.076075 78.37683 
L 574.974326 76.529471 
L 576.020881 73.82047 
L 577.239334 70.020825 
L 578.793157 64.415113 
L 584.78262 41.925581 
L 586.024667 38.50557 
L 587.030776 36.332852 
L 587.900377 34.939366 
L 588.665491 34.110549 
L 589.326119 33.705539 
L 589.926919 33.591833 
L 590.500755 33.710888 
L 591.099027 34.070636 
L 591.752913 34.734562 
L 592.489378 35.810843 
L 593.353924 37.496196 
L 594.373514 40.021671 
L 595.590282 43.696237 
L 597.142419 49.189257 
L 599.850655 59.848346 
L 602.262282 68.954769 
L 603.732683 73.649087 
L 604.874456 76.610988 
L 605.867925 78.605799 
L 606.718146 79.837014 
L 607.436073 80.514368 
L 608.072264 80.828535 
L 608.657054 80.876815 
L 609.231732 80.699295 
L 609.840959 80.269482 
L 610.515911 79.508498 
L 611.296193 78.268508 
L 612.20287 76.370335 
L 613.202237 73.760316 
L 614.473777 69.770381 
L 616.12703 63.750792 
L 621.711186 42.643184 
L 622.956603 39.076598 
L 623.998945 36.702822 
L 624.887927 35.178691 
L 625.656412 34.261099 
L 626.327151 33.776473 
L 626.936378 33.597459 
L 627.513584 33.659082 
L 628.107643 33.956833 
L 628.728666 34.518933 
L 629.455862 35.49466 
L 630.290915 37.018948 
L 631.259948 39.289795 
L 632.429528 42.664415 
L 633.74994 47.149226 
L 635.796705 55.002024 
L 639.636602 69.690303 
L 641.010943 73.985433 
L 642.140076 76.849441 
L 643.093942 78.717089 
L 643.949218 79.918785 
L 644.679784 80.571002 
L 645.306706 80.847447 
L 645.891496 80.866427 
L 646.472073 80.656935 
L 647.079614 80.196347 
L 647.77479 79.372796 
L 648.568554 78.059794 
L 649.488714 76.070963 
L 650.574873 73.142328 
L 651.902868 68.846274 
L 653.483655 62.992641 
L 658.616157 43.459695 
L 660.005666 39.364579 
L 661.06486 36.892504 
L 661.970695 35.292208 
L 662.757718 34.317954 
L 663.442782 33.79942 
L 664.057907 33.60139 
L 664.632585 33.647202 
L 665.222431 33.925671 
L 665.864521 34.49204 
L 666.591716 35.456455 
L 667.424242 36.963269 
L 668.400858 39.239455 
L 669.544316 42.521581 
L 670.966687 47.353861 
L 673.04463 55.351068 
L 676.36462 68.188988 
L 677.839235 73.022311 
L 679.02314 76.208679 
L 680.018294 78.305378 
L 680.872728 79.632596 
L 681.61172 80.404979 
L 682.278246 80.792015 
L 682.863879 80.885532 
L 683.437715 80.752445 
L 684.041885 80.373342 
L 684.705883 79.678711 
L 685.466785 78.535976 
L 686.345655 76.779482 
L 687.374515 74.179316 
L 688.616562 70.367505 
L 690.213359 64.645838 
L 692.097495 57.239135 
L 692.097495 57.239135 
" clip-path="url(#p80883eee84)" style="fill: none; stroke: #2a78d6; stroke-width: 1.5; stroke-linecap: square"/>
   </g>
   <g id="patch_12">
    <path d="M 543.457175 94.399442 
L 543.457175 20.078861 
" style="fill: none; stroke: #000000; stroke-width: 0.8; stroke-linejoin: miter; stroke-linecap: square"/>
   </g>
   <g id="patch_13">
    <path d="M 543.457175 94.399442 
L 692.098337 94.399442 
" style="fill: none; stroke: #000000; stroke-width: 0.8; stroke-linejoin: miter; stroke-linecap: square"/>
   </g>
   <g id="text_28">
    <!-- Amount 3 (0.7) -->
    <g transform="translate(572.345569 14.078861) scale(0.12 -0.12)">
     <defs>
      <path id="DejaVuSans-1a" d="M 525 4666 
L 3525 4666 
L 3525 4397 
L 1831 0 
L 1172 0 
L 2766 4134 
L 525 4134 
L 525 4666 
z
" transform="scale(0.015625)"/>
     </defs>
     <use xlink:href="#DejaVuSans-24"/>
     <use xlink:href="#DejaVuSans-50" transform="translate(68.40625 0)"/>
     <use xlink:href="#DejaVuSans-52" transform="translate(165.8125 0)"/>
     <use xlink:href="#DejaVuSans-58" transform="translate(227 0)"/>
     <use xlink:href="#DejaVuSans-51" transform="translate(290.375 0)"/>
     <use xlink:href="#DejaVuSans-57" transform="translate(353.75 0)"/>
     <use xlink:href="#DejaVuSans-3" transform="translate(392.953125 0)"/>
     <use xlink:href="#DejaVuSans-16" transform="translate(424.734375 0)"/>
     <use xlink:href="#DejaVuSans-3" transform="translate(488.359375 0)"/>
     <use xlink:href="#DejaVuSans-b" transform="translate(520.140625 0)"/>
     <use xlink:href="#DejaVuSans-13" transform="translate(559.15625 0)"/>
     <use xlink:href="#DejaVuSans-11" transform="translate(622.78125 0)"/>
     <use xlink:href="#DejaVuSans-1a" transform="translate(654.5625 0)"/>
     <use xlink:href="#DejaVuSans-c" transform="translate(718.1875 0)"/>
    </g>
   </g>
  </g>
  <g id="axes_5">
   <g id="patch_14">
    <path d="M 710.101337 94.399442 
L 858.7425 94.399442 
L 858.7425 20.078861 
L 710.101337 20.078861 
z
" style="fill: #ffffff"/>
   </g>
   <g id="matplotlib.axis_9">
    <g id="xtick_21">
     <g id="line2d_69">
      <path d="M 710.101337 94.399442 
L 710.101337 20.078861 
" clip-path="url(#p00c95cc813)" style="fill: none; stroke: #52514e; stroke-opacity: 0.15; stroke-width: 0.8; stroke-linecap: square"/>
     </g>
     <g id="line2d_70">
      <g>
       <use xlink:href="#mb86fb6464f" x="710.101337" y="94.399442" style="stroke: #000000; stroke-width: 0.8"/>
      </g>
     </g>
     <g id="text_29">
      <!-- 0 -->
      <g transform="translate(706.283837 110.51663) scale(0.12 -0.12)">
       <use xlink:href="#DejaVuSans-13"/>
      </g>
     </g>
    </g>
    <g id="xtick_22">
     <g id="line2d_71">
      <path d="M 747.261628 94.399442 
L 747.261628 20.078861 
" clip-path="url(#p00c95cc813)" style="fill: none; stroke: #52514e; stroke-opacity: 0.15; stroke-width: 0.8; stroke-linecap: square"/>
     </g>
     <g id="line2d_72">
      <g>
       <use xlink:href="#mb86fb6464f" x="747.261628" y="94.399442" style="stroke: #000000; stroke-width: 0.8"/>
      </g>
     </g>
     <g id="text_30">
      <!-- 1 -->
      <g transform="translate(743.444128 110.51663) scale(0.12 -0.12)">
       <use xlink:href="#DejaVuSans-14"/>
      </g>
     </g>
    </g>
    <g id="xtick_23">
     <g id="line2d_73">
      <path d="M 784.421919 94.399442 
L 784.421919 20.078861 
" clip-path="url(#p00c95cc813)" style="fill: none; stroke: #52514e; stroke-opacity: 0.15; stroke-width: 0.8; stroke-linecap: square"/>
     </g>
     <g id="line2d_74">
      <g>
       <use xlink:href="#mb86fb6464f" x="784.421919" y="94.399442" style="stroke: #000000; stroke-width: 0.8"/>
      </g>
     </g>
     <g id="text_31">
      <!-- 2 -->
      <g transform="translate(780.604419 110.51663) scale(0.12 -0.12)">
       <use xlink:href="#DejaVuSans-15"/>
      </g>
     </g>
    </g>
    <g id="xtick_24">
     <g id="line2d_75">
      <path d="M 821.582209 94.399442 
L 821.582209 20.078861 
" clip-path="url(#p00c95cc813)" style="fill: none; stroke: #52514e; stroke-opacity: 0.15; stroke-width: 0.8; stroke-linecap: square"/>
     </g>
     <g id="line2d_76">
      <g>
       <use xlink:href="#mb86fb6464f" x="821.582209" y="94.399442" style="stroke: #000000; stroke-width: 0.8"/>
      </g>
     </g>
     <g id="text_32">
      <!-- 3 -->
      <g transform="translate(817.764709 110.51663) scale(0.12 -0.12)">
       <use xlink:href="#DejaVuSans-16"/>
      </g>
     </g>
    </g>
    <g id="xtick_25">
     <g id="line2d_77">
      <path d="M 858.7425 94.399442 
L 858.7425 20.078861 
" clip-path="url(#p00c95cc813)" style="fill: none; stroke: #52514e; stroke-opacity: 0.15; stroke-width: 0.8; stroke-linecap: square"/>
     </g>
     <g id="line2d_78">
      <g>
       <use xlink:href="#mb86fb6464f" x="858.7425" y="94.399442" style="stroke: #000000; stroke-width: 0.8"/>
      </g>
     </g>
     <g id="text_33">
      <!-- 4 -->
      <g transform="translate(854.925 110.51663) scale(0.12 -0.12)">
       <use xlink:href="#DejaVuSans-17"/>
      </g>
     </g>
    </g>
   </g>
   <g id="matplotlib.axis_10">
    <g id="ytick_13">
     <g id="line2d_79">
      <path d="M 710.101337 91.021234 
L 858.7425 91.021234 
" clip-path="url(#p00c95cc813)" style="fill: none; stroke: #52514e; stroke-opacity: 0.15; stroke-width: 0.8; stroke-linecap: square"/>
     </g>
     <g id="line2d_80">
      <g>
       <use xlink:href="#m36dbb3258b" x="710.101337" y="91.021234" style="stroke: #000000; stroke-width: 0.8"/>
      </g>
     </g>
    </g>
    <g id="ytick_14">
     <g id="line2d_81">
      <path d="M 710.101337 57.239152 
L 858.7425 57.239152 
" clip-path="url(#p00c95cc813)" style="fill: none; stroke: #52514e; stroke-opacity: 0.15; stroke-width: 0.8; stroke-linecap: square"/>
     </g>
     <g id="line2d_82">
      <g>
       <use xlink:href="#m36dbb3258b" x="710.101337" y="57.239152" style="stroke: #000000; stroke-width: 0.8"/>
      </g>
     </g>
    </g>
    <g id="ytick_15">
     <g id="line2d_83">
      <path d="M 710.101337 23.457069 
L 858.7425 23.457069 
" clip-path="url(#p00c95cc813)" style="fill: none; stroke: #52514e; stroke-opacity: 0.15; stroke-width: 0.8; stroke-linecap: square"/>
     </g>
     <g id="line2d_84">
      <g>
       <use xlink:href="#m36dbb3258b" x="710.101337" y="23.457069" style="stroke: #000000; stroke-width: 0.8"/>
      </g>
     </g>
    </g>
   </g>
   <g id="line2d_85">
    <path d="M 710.101337 57.234818 
L 712.956192 43.122446 
L 714.471253 36.760148 
L 715.645046 32.731318 
L 716.648627 30.044674 
L 717.485365 28.399229 
L 718.190652 27.458885 
L 718.804935 26.984214 
L 719.342537 26.836281 
L 719.852333 26.927906 
L 720.367184 27.248861 
L 720.946075 27.880816 
L 721.610073 28.951257 
L 722.373502 30.621122 
L 723.286921 33.198132 
L 724.367181 36.978838 
L 725.634508 42.26287 
L 727.314726 50.279548 
L 732.443014 75.302315 
L 733.752472 80.232078 
L 734.795657 83.365959 
L 735.706547 85.442097 
L 736.466606 86.665079 
L 737.116279 87.326286 
L 737.678318 87.605877 
L 738.192326 87.621681 
L 738.701279 87.411352 
L 739.254049 86.93004 
L 739.87423 86.081808 
L 740.594684 84.69939 
L 741.449118 82.534377 
L 742.453542 79.319412 
L 743.65767 74.637262 
L 745.201381 67.613452 
L 747.875068 54.086917 
L 750.184736 42.812618 
L 751.675361 36.594198 
L 752.866007 32.548031 
L 753.826613 30.004104 
L 754.666722 28.365128 
L 755.366111 27.443267 
L 755.974494 26.979538 
L 756.507884 26.836084 
L 757.006725 26.925555 
L 757.533373 27.253863 
L 758.119006 27.897786 
L 758.777105 28.963971 
L 759.5616 30.690498 
L 760.461536 33.243301 
L 761.510619 36.914335 
L 762.774575 42.172488 
L 764.427829 50.043626 
L 769.460057 74.704722 
L 770.800692 79.85103 
L 771.897805 83.211834 
L 772.817122 85.345643 
L 773.596562 86.625464 
L 774.257189 87.311785 
L 774.826812 87.60282 
L 775.345033 87.623119 
L 775.858199 87.413484 
L 776.410969 86.933765 
L 777.03452 86.081818 
L 777.765087 84.677038 
L 778.619521 82.505502 
L 779.624786 79.280671 
L 780.832285 74.576818 
L 782.36757 67.584918 
L 784.495228 56.857951 
L 787.213575 43.410986 
L 788.683977 37.173332 
L 789.940348 32.808446 
L 790.916965 30.165842 
L 791.753703 28.485378 
L 792.467417 27.505092 
L 793.086755 27.004559 
L 793.632784 26.837948 
L 794.134995 26.913328 
L 794.646476 27.214695 
L 795.241378 27.847294 
L 795.910431 28.913314 
L 796.687343 30.604398 
L 797.593177 33.153145 
L 798.590017 36.606964 
L 799.874196 41.902364 
L 801.604129 50.123626 
L 806.591698 74.583965 
L 807.891886 79.61206 
L 809.027761 83.130425 
L 809.931068 85.253935 
L 810.731573 86.591855 
L 811.390515 87.291065 
L 811.960138 87.595376 
L 812.474146 87.628495 
L 812.984784 87.434242 
L 813.528285 86.980422 
L 814.15605 86.144223 
L 814.88156 84.773306 
L 815.681223 82.783858 
L 816.608123 79.897256 
L 817.690912 75.827635 
L 819.129293 69.486671 
L 821.262007 58.880071 
L 824.395774 43.310771 
L 825.853536 37.137571 
L 827.031543 33.021526 
L 828.066301 30.191503 
L 828.903882 28.502296 
L 829.647088 27.484441 
L 830.266426 26.994217 
L 830.803186 26.8373 
L 831.316352 26.92127 
L 831.848056 27.248869 
L 832.426947 27.880832 
L 833.084204 28.938576 
L 833.868699 30.656811 
L 834.745884 33.129393 
L 835.741881 36.575181 
L 837.034486 41.902384 
L 838.74841 50.043667 
L 843.780638 74.704755 
L 845.168461 80.012494 
L 846.224285 83.227594 
L 847.121693 85.314165 
L 847.919671 86.628798 
L 848.572714 87.307947 
L 849.137281 87.600104 
L 849.652132 87.625545 
L 850.161928 87.423981 
L 850.704586 86.963222 
L 851.33235 86.118574 
L 852.029211 84.800806 
L 852.872691 82.6966 
L 853.864475 79.565009 
L 855.05175 75.001259 
L 856.555014 68.225824 
L 858.741657 57.239131 
L 858.741657 57.239131 
" clip-path="url(#p00c95cc813)" style="fill: none; stroke: #2a78d6; stroke-width: 1.5; stroke-linecap: square"/>
   </g>
   <g id="patch_15">
    <path d="M 710.101337 94.399442 
L 710.101337 20.078861 
" style="fill: none; stroke: #000000; stroke-width: 0.8; stroke-linejoin: miter; stroke-linecap: square"/>
   </g>
   <g id="patch_16">
    <path d="M 710.101337 94.399442 
L 858.7425 94.399442 
" style="fill: none; stroke: #000000; stroke-width: 0.8; stroke-linejoin: miter; stroke-linecap: square"/>
   </g>
   <g id="text_34">
    <!-- Amount 4 (0.9) -->
    <g transform="translate(738.989731 14.078861) scale(0.12 -0.12)">
     <defs>
      <path id="DejaVuSans-1c" d="M 703 97 
L 703 672 
Q 941 559 1184 500 
Q 1428 441 1663 441 
Q 2288 441 2617 861 
Q 2947 1281 2994 2138 
Q 2813 1869 2534 1725 
Q 2256 1581 1919 1581 
Q 1219 1581 811 2004 
Q 403 2428 403 3163 
Q 403 3881 828 4315 
Q 1253 4750 1959 4750 
Q 2769 4750 3195 4129 
Q 3622 3509 3622 2328 
Q 3622 1225 3098 567 
Q 2575 -91 1691 -91 
Q 1453 -91 1209 -44 
Q 966 3 703 97 
z
M 1959 2075 
Q 2384 2075 2632 2365 
Q 2881 2656 2881 3163 
Q 2881 3666 2632 3958 
Q 2384 4250 1959 4250 
Q 1534 4250 1286 3958 
Q 1038 3666 1038 3163 
Q 1038 2656 1286 2365 
Q 1534 2075 1959 2075 
z
" transform="scale(0.015625)"/>
     </defs>
     <use xlink:href="#DejaVuSans-24"/>
     <use xlink:href="#DejaVuSans-50" transform="translate(68.40625 0)"/>
     <use xlink:href="#DejaVuSans-52" transform="translate(165.8125 0)"/>
     <use xlink:href="#DejaVuSans-58" transform="translate(227 0)"/>
     <use xlink:href="#DejaVuSans-51" transform="translate(290.375 0)"/>
     <use xlink:href="#DejaVuSans-57" transform="translate(353.75 0)"/>
     <use xlink:href="#DejaVuSans-3" transform="translate(392.953125 0)"/>
     <use xlink:href="#DejaVuSans-17" transform="translate(424.734375 0)"/>
     <use xlink:href="#DejaVuSans-3" transform="translate(488.359375 0)"/>
     <use xlink:href="#DejaVuSans-b" transform="translate(520.140625 0)"/>
     <use xlink:href="#DejaVuSans-13" transform="translate(559.15625 0)"/>
     <use xlink:href="#DejaVuSans-11" transform="translate(622.78125 0)"/>
     <use xlink:href="#DejaVuSans-1c" transform="translate(654.5625 0)"/>
     <use xlink:href="#DejaVuSans-c" transform="translate(718.1875 0)"/>
    </g>
   </g>
  </g>
  <g id="text_35">
   <!-- Time (s) -->
   <g transform="translate(407.6025 125.277187) scale(0.12 -0.12)">
    <defs>
     <path id="DejaVuSans-37" d="M -19 4666 
L 3928 4666 
L 3928 4134 
L 2272 4134 
L 2272 0 
L 1638 0 
L 1638 4134 
L -19 4134 
L -19 4666 
z
" transform="scale(0.015625)"/>
    </defs>
    <use xlink:href="#DejaVuSans-37"/>
    <use xlink:href="#DejaVuSans-4c" transform="translate(58 0)"/>
    <use xlink:href="#DejaVuSans-50" transform="translate(85.78125 0)"/>
    <use xlink:href="#DejaVuSans-48" transform="translate(183.1875 0)"/>
    <use xlink:href="#DejaVuSans-3" transform="translate(244.71875 0)"/>
    <use xlink:href="#DejaVuSans-b" transform="translate(276.5 0)"/>
    <use xlink:href="#DejaVuSans-56" transform="translate(315.515625 0)"/>
    <use xlink:href="#DejaVuSans-c" transform="translate(367.609375 0)"/>
   </g>
  </g>
 </g>
 <defs>
  <clipPath id="p076a864ead">
   <rect x="43.524687" y="20.078861" width="148.641162" height="74.320581"/>
  </clipPath>
  <clipPath id="p23a1acc1e8">
   <rect x="210.16885" y="20.078861" width="148.641162" height="74.320581"/>
  </clipPath>
  <clipPath id="pff1aa46698">
   <rect x="376.813012" y="20.078861" width="148.641162" height="74.320581"/>
  </clipPath>
  <clipPath id="p80883eee84">
   <rect x="543.457175" y="20.078861" width="148.641163" height="74.320581"/>
  </clipPath>
  <clipPath id="p00c95cc813">
   <rect x="710.101337" y="20.078861" width="148.641163" height="74.320581"/>
  </clipPath>
 </defs>
</svg>
